<svg xmlns="http://www.w3.org/2000/svg" version="1.1" xmlns:xlink="http://www.w3.org/1999/xlink" xmlns:svgjs="http://svgjs.dev/svgjs" width="1440" height="560" preserveAspectRatio="none" viewBox="0 0 1440 560"><g mask="url(&quot;#SvgjsMask1000&quot;)" fill="none"><path d="M-37.20542324376023 60.884689249341434L135.44902784434964 145.297671844287 126.656587195535-22.472089994481394z" fill="rgba(142, 69, 28, 0.4)" class="triangle-float3"></path><path d="M117.96708478242786-60.543136330672084L-42.69211421936208-11.42468993725231 6.426332174057691 149.23450906453763 167.08553117584762 100.11606267111786z" fill="rgba(142, 69, 28, 0.4)" class="triangle-float3"></path><path d="M131.396,271.395C183.394,274.616,235.325,251.548,262.184,206.907C289.818,160.977,290.203,101.473,260.459,56.881C233.292,16.152,180.325,12.521,131.396,10.826C77.818,8.97,12.795,1.018,-14.141,47.37C-41.129,93.812,-3.31,147.231,25.952,192.274C51.61,231.769,84.388,268.483,131.396,271.395" fill="rgba(142, 69, 28, 0.4)" class="triangle-float3"></path><path d="M1417.245,211.489C1460.705,212.13,1500.032,187.229,1522.095,149.78C1544.515,111.726,1551.482,62.579,1526.393,26.229C1503.507,-6.929,1457.366,-5.811,1417.245,-2.131C1384.718,0.852,1356.187,16.358,1338.023,43.506C1317.111,74.759,1301.579,112.753,1317.619,146.764C1335.724,185.154,1374.805,210.863,1417.245,211.489" fill="rgba(142, 69, 28, 0.4)" class="triangle-float3"></path><path d="M1508.0330978858858 101.14435569428869L1437.0332299134484-51.11535252786848 1284.773521691291 19.884515444569033 1355.7733896637287 172.1442236667262z" fill="rgba(142, 69, 28, 0.4)" class="triangle-float1"></path><path d="M1308.291772967774 164.12255353005287L1473.739475473825 134.9496596820086 1444.5665816257806-30.498042824042358 1279.1188791197296-1.3251489759980757z" fill="rgba(142, 69, 28, 0.4)" class="triangle-float1"></path><path d="M148.97817182189624 495.8654640102186L-26.51707344729843 417.5294569699289-11.874908665691862 584.8901662493422z" fill="rgba(142, 69, 28, 0.4)" class="triangle-float3"></path><path d="M139.06605366272453 606.5780334726865L156.62683549169023 439.49835505081654-28.013624759145387 589.0172516437208z" fill="rgba(142, 69, 28, 0.4)" class="triangle-float2"></path><path d="M19.828,524.472C38.552,524.151,51.634,507.799,60.351,491.224C68.358,475.999,71.748,457.701,62.608,443.128C53.903,429.248,36.211,426.769,19.828,426.608C3.056,426.444,-15.278,428.219,-24.43,442.275C-34.255,457.363,-31.716,476.805,-23.18,492.658C-14.119,509.486,0.719,524.8,19.828,524.472" fill="rgba(142, 69, 28, 0.4)" class="triangle-float2"></path><path d="M1510.8800705560016 467.61772522331455L1363.9439597565831 386.1697090219299 1282.4959435551984 533.1058198213484 1429.4320543546169 614.5538360227331z" fill="rgba(142, 69, 28, 0.4)" class="triangle-float2"></path><path d="M1468.311,747.862C1525.323,746.594,1578.53,717.791,1606.605,668.155C1634.268,619.248,1629.141,560.315,1602.319,510.942C1574.07,458.944,1527.477,414.661,1468.311,413.593C1407.607,412.498,1355.819,453.258,1325.658,505.95C1295.71,558.269,1288.314,622.625,1318.935,674.553C1349.131,725.76,1408.879,749.184,1468.311,747.862" fill="rgba(142, 69, 28, 0.4)" class="triangle-float3"></path><path d="M1367.9140673604338 635.0094080336888L1500.299873966363 531.5782801789783 1396.8687461116526 399.19247357304897 1264.4829395057232 502.6236014277595z" fill="rgba(142, 69, 28, 0.4)" class="triangle-float1"></path></g><defs><mask id="SvgjsMask1000"><rect width="1440" height="560" fill="#ffffff"></rect></mask><style>
                @keyframes float1 {
                    0%{transform: translate(0, 0)}
                    50%{transform: translate(-10px, 0)}
                    100%{transform: translate(0, 0)}
                }

                .triangle-float1 {
                    animation: float1 5s infinite;
                }

                @keyframes float2 {
                    0%{transform: translate(0, 0)}
                    50%{transform: translate(-5px, -5px)}
                    100%{transform: translate(0, 0)}
                }

                .triangle-float2 {
                    animation: float2 4s infinite;
                }

                @keyframes float3 {
                    0%{transform: translate(0, 0)}
                    50%{transform: translate(0, -10px)}
                    100%{transform: translate(0, 0)}
                }

                .triangle-float3 {
                    animation: float3 6s infinite;
                }
            </style></defs></svg>