<svg xmlns="http://www.w3.org/2000/svg" version="1.1" xmlns:xlink="http://www.w3.org/1999/xlink" xmlns:svgjs="http://svgjs.dev/svgjs" width="1440" height="560" preserveAspectRatio="none" viewBox="0 0 1440 560"><g mask="url(&quot;#SvgjsMask1021&quot;)" fill="none"><path d="M244.4618662525473 467.05935430745643L389.3839749210789 528.5751397492397 305.9776516943306 322.1372456389248z" fill="rgba(142, 69, 28, 0.4)" class="triangle-float2"></path><path d="M1057.283,380.386C1090.229,379.363,1115.977,354.776,1131.649,325.778C1146.461,298.369,1148.355,266.206,1133.906,238.604C1118.289,208.769,1090.945,182.786,1057.283,183.712C1024.702,184.608,1003.633,214.234,987.63,242.628C972.016,270.331,960.114,302.279,974.463,330.658C990.035,361.457,1022.788,381.457,1057.283,380.386" fill="rgba(142, 69, 28, 0.4)" class="triangle-float3"></path><path d="M174.52784731046614 483.44780873957416L276.832374343701 474.4973223967847 212.25438131289934 325.51577501832713z" fill="rgba(142, 69, 28, 0.4)" class="triangle-float1"></path><path d="M763.9025249537704 213.76747708825314L726.2374727467222 97.84636598377466 610.3163616422437 135.5114181908228 647.9814138492918 251.4325292953013z" fill="rgba(142, 69, 28, 0.4)" class="triangle-float2"></path><path d="M833.405,417.849C871.998,419.817,912.441,410.992,934.434,379.218C959.513,342.986,966.687,294.816,945.192,256.349C923.25,217.083,878.3,195.644,833.405,198.423C792.616,200.948,761.366,232.207,743.267,268.848C727.278,301.216,730.09,338.859,748.777,369.749C766.778,399.505,798.673,416.078,833.405,417.849" fill="rgba(142, 69, 28, 0.4)" class="triangle-float2"></path><path d="M1173.909,290.922C1215.275,292.329,1259.019,281.725,1280.961,246.63C1304.027,209.738,1299.983,162.27,1277.716,124.891C1255.977,88.398,1216.303,64.274,1173.909,66.922C1135.123,69.345,1109.114,102.549,1090.373,136.594C1072.487,169.084,1061.112,207.138,1078.767,239.754C1097.139,273.696,1135.336,289.61,1173.909,290.922" fill="rgba(142, 69, 28, 0.4)" class="triangle-float2"></path><path d="M284.922,514.341C327.361,511.728,367.645,494.326,389.759,458.01C412.797,420.177,414.315,373.821,394.662,334.124C372.377,289.111,335.149,246.298,284.922,246.251C234.642,246.204,199.858,290.313,174.825,333.918C149.932,377.279,129.013,429.781,155.057,472.46C180.45,514.073,236.265,517.337,284.922,514.341" fill="rgba(142, 69, 28, 0.4)" class="triangle-float1"></path><path d="M997.5759475510428 89.36001722476246L1056.1786010189214 71.44338804474214 1000.0023305149516-7.502277567065832z" fill="rgba(142, 69, 28, 0.4)" class="triangle-float1"></path><path d="M667.877,302.045C707.403,300.699,734.242,265.741,752.472,230.644C769.015,198.796,773.876,162.017,757.086,130.299C739.166,96.447,706.16,72.052,667.877,70.838C627.517,69.558,588.397,89.288,568.302,124.313C548.293,159.188,553.022,201.692,572.674,236.769C592.831,272.747,626.661,303.449,667.877,302.045" fill="rgba(142, 69, 28, 0.4)" class="triangle-float3"></path><path d="M782.472,440.28C814.597,439.892,843.234,419.508,857.51,390.727C870.412,364.715,861.371,335.378,847.028,310.132C832.455,284.483,811.937,260.079,782.472,258.651C750.897,257.12,722.027,276.005,706.081,303.3C689.988,330.846,688.69,364.714,704.229,392.577C720.175,421.17,749.735,440.675,782.472,440.28" fill="rgba(142, 69, 28, 0.4)" class="triangle-float1"></path></g><defs><mask id="SvgjsMask1021"><rect width="1440" height="560" fill="#ffffff"></rect></mask><style>
                @keyframes float1 {
                    0%{transform: translate(0, 0)}
                    50%{transform: translate(-10px, 0)}
                    100%{transform: translate(0, 0)}
                }

                .triangle-float1 {
                    animation: float1 5s infinite;
                }

                @keyframes float2 {
                    0%{transform: translate(0, 0)}
                    50%{transform: translate(-5px, -5px)}
                    100%{transform: translate(0, 0)}
                }

                .triangle-float2 {
                    animation: float2 4s infinite;
                }

                @keyframes float3 {
                    0%{transform: translate(0, 0)}
                    50%{transform: translate(0, -10px)}
                    100%{transform: translate(0, 0)}
                }

                .triangle-float3 {
                    animation: float3 6s infinite;
                }
            </style></defs></svg>