<svg xmlns="http://www.w3.org/2000/svg" version="1.1" xmlns:xlink="http://www.w3.org/1999/xlink" xmlns:svgjs="http://svgjs.dev/svgjs" width="1440" height="768" preserveAspectRatio="none" viewBox="0 0 1440 768"><g mask="url(&quot;#SvgjsMask1251&quot;)" fill="none"><path d="M977.354,367.381C1036.813,363.468,1087.272,330.422,1119.675,280.414C1155.842,224.596,1186.12,154.513,1152.448,97.155C1119.019,40.211,1043.383,37.504,977.354,37.981C912.491,38.45,843.023,45.987,806.589,99.653C766.041,159.38,759.596,240.691,798.417,301.555C835.047,358.984,909.384,371.854,977.354,367.381" fill="rgba(142, 69, 28, 0.4)" class="triangle-float3"></path><path d="M120.012,887.016C177.555,882.022,212.285,829.4,240.102,778.781C266.525,730.7,286.814,676.323,262.944,626.925C236.123,571.42,181.65,531.252,120.012,530.262C56.826,529.248,1.233,567.906,-31.097,622.204C-64.266,677.911,-74.704,747.003,-42.571,803.314C-10.192,860.057,54.926,892.665,120.012,887.016" fill="rgba(142, 69, 28, 0.4)" class="triangle-float1"></path><path d="M917.039,675.865C994.275,678.004,1067.18,638.788,1107.074,572.618C1148.309,504.225,1154.938,417.757,1113.995,349.189C1073.957,282.137,995.06,250.95,917.039,254.363C844.838,257.521,783.143,302.154,747.826,365.207C713.362,426.736,710.67,500.641,744.404,562.573C779.692,627.358,843.295,673.822,917.039,675.865" fill="rgba(142, 69, 28, 0.4)" class="triangle-float3"></path><path d="M1220.3634727501849 672.8211006839091L1276.9806836225596 461.5227931253651 1065.6823760640157 404.90558225299037 1009.065165191641 616.2038898115344z" fill="rgba(142, 69, 28, 0.4)" class="triangle-float2"></path><path d="M348.7089283545097-121.47261323247774L297.5438132567597 100.14784841839834 519.1642749076358 151.31296351614833 570.3293900053858-70.30749813472775z" fill="rgba(142, 69, 28, 0.4)" class="triangle-float1"></path><path d="M1302.5575588156294 234.62073083143508L1550.4131297149238 252.1898632781801 1458.6168942216982 55.332200986233204z" fill="rgba(142, 69, 28, 0.4)" class="triangle-float3"></path><path d="M320.354,772.258C385.154,771.6,442.59,734.947,476.283,679.592C511.511,621.715,527.575,548.122,491.804,490.579C457.428,435.279,385.466,428.272,320.354,428.755C256.384,429.229,187.57,439.102,153.249,493.088C116.868,550.316,124.011,624.63,158.84,682.816C192.717,739.412,254.397,772.928,320.354,772.258" fill="rgba(142, 69, 28, 0.4)" class="triangle-float2"></path><path d="M916.9607599013455 102.3028500363781L793.9070077932868 238.96788712427724 1053.6257969892447 225.35660214443678z" fill="rgba(142, 69, 28, 0.4)" class="triangle-float3"></path></g><defs><mask id="SvgjsMask1251"><rect width="1440" height="768" fill="#ffffff"></rect></mask><style>
                @keyframes float1 {
                    0%{transform: translate(0, 0)}
                    50%{transform: translate(-10px, 0)}
                    100%{transform: translate(0, 0)}
                }

                .triangle-float1 {
                    animation: float1 5s infinite;
                }

                @keyframes float2 {
                    0%{transform: translate(0, 0)}
                    50%{transform: translate(-5px, -5px)}
                    100%{transform: translate(0, 0)}
                }

                .triangle-float2 {
                    animation: float2 4s infinite;
                }

                @keyframes float3 {
                    0%{transform: translate(0, 0)}
                    50%{transform: translate(0, -10px)}
                    100%{transform: translate(0, 0)}
                }

                .triangle-float3 {
                    animation: float3 6s infinite;
                }
            </style></defs></svg>