<svg xmlns="http://www.w3.org/2000/svg" version="1.1" xmlns:xlink="http://www.w3.org/1999/xlink" xmlns:svgjs="http://svgjs.dev/svgjs" width="1440" height="768" preserveAspectRatio="none" viewBox="0 0 1440 768"><g mask="url(&quot;#SvgjsMask1025&quot;)" fill="none"><path d="M295.2332524629409 698.9566610042904L482.2129720458431 692.4271853171041 475.68349635865684 505.4474657342019 288.70377677575465 511.9769414213882z" fill="rgba(142, 69, 28, 0.4)" class="triangle-float3"></path><path d="M1053.7134478448775 753.2631968545263L1074.4598185519426 663.4007926579185 929.2930269034982 677.2124386956248z" fill="rgba(142, 69, 28, 0.4)" class="triangle-float2"></path><path d="M357.056,633.052C394.471,634.042,427.242,607.784,443.709,574.173C458.451,544.082,447.249,510.743,431.461,481.187C414.353,449.16,393.358,412.698,357.056,411.953C320.027,411.193,293.757,444.906,277.17,478.021C262.486,507.336,262.98,540.643,277.998,569.788C294.568,601.945,320.894,632.095,357.056,633.052" fill="rgba(142, 69, 28, 0.4)" class="triangle-float1"></path><path d="M1117.021,532.875C1141.084,531.671,1158.431,511.789,1169.312,490.293C1179.032,471.091,1179.631,448.804,1169.067,430.053C1158.299,410.94,1138.955,397.113,1117.021,397.475C1095.62,397.828,1079.291,413.623,1067.865,431.722C1055.351,451.544,1044.558,474.939,1054.804,496.023C1066.096,519.26,1091.218,534.166,1117.021,532.875" fill="rgba(142, 69, 28, 0.4)" class="triangle-float2"></path><path d="M1210.6156836050507 134.37466118021814L1344.6959146120164 127.47593994578199 1282.5033974865185 27.947107341870776z" fill="rgba(142, 69, 28, 0.4)" class="triangle-float2"></path><path d="M897.529,314.965C934.275,315.387,959.608,280.843,975.248,247.589C988.457,219.504,984.07,188.539,969.998,160.877C954.113,129.65,932.525,96.471,897.529,94.812C860.562,93.06,828.502,120.22,812.097,153.393C797.358,183.198,807.299,216.444,822.841,245.838C839.836,277.98,861.173,314.547,897.529,314.965" fill="rgba(142, 69, 28, 0.4)" class="triangle-float3"></path><path d="M1258.6838944214633 527.2951167077958L1255.1360209932225 730.5526492824965 1461.941426996164 530.8429901360365z" fill="rgba(142, 69, 28, 0.4)" class="triangle-float2"></path><path d="M661.5361000522299 637.7534523664905L784.8514097572768 485.471727054489 632.5696844452752 362.1564173494422 509.25437474022846 514.4381426614436z" fill="rgba(142, 69, 28, 0.4)" class="triangle-float1"></path><path d="M1176.4795959105627 127.08766012819268L996.9098717773239 27.550536674261707 1076.9424724566318 306.6573842614315z" fill="rgba(142, 69, 28, 0.4)" class="triangle-float1"></path><path d="M313.773,451.727C344.628,453.42,376.744,441.909,392.133,415.113C407.474,388.401,400.709,355.212,384.104,329.267C368.836,305.412,342.094,292.334,313.773,292.679C286.078,293.017,259.979,306.834,246.352,330.947C232.93,354.697,235.72,383.439,249.017,407.259C262.696,431.765,285.75,450.189,313.773,451.727" fill="rgba(142, 69, 28, 0.4)" class="triangle-float1"></path><path d="M584.9599782308525 105.58654433090808L436.919481448243 171.49842008585188 502.8313572031868 319.53891686846134 650.8718539857963 253.62704111351755z" fill="rgba(142, 69, 28, 0.4)" class="triangle-float3"></path><path d="M588.9236101211569 605.6505334771447L484.2475645099832 431.4403384728813 414.71341511689354 710.3265790883183z" fill="rgba(142, 69, 28, 0.4)" class="triangle-float2"></path><path d="M656.8352734163944 243.56355680056774L723.0621673403474 193.65801265844487 615.0904041651866 119.27044384357689z" fill="rgba(142, 69, 28, 0.4)" class="triangle-float3"></path><path d="M1006.363039605199 219.14553661560674L865.3600849053297 317.8768684062975 964.0914166960204 458.8798231061668 1105.0943713958898 360.14849131547606z" fill="rgba(142, 69, 28, 0.4)" class="triangle-float1"></path><path d="M520.1026978146025 341.20758931035016L626.7967031075433 440.70135884646885 619.5964673507211 234.51358401740936z" fill="rgba(142, 69, 28, 0.4)" class="triangle-float3"></path><path d="M1015.0596364780572-86.20505452761554L830.6447310437352-70.07084091690706 846.7789446544436 114.34406451741495 1031.1938500887657 98.20985090670646z" fill="rgba(142, 69, 28, 0.4)" class="triangle-float1"></path><path d="M1121.9667791164468 390.33604838356325L1000.7939628329499 350.9646137250437 1082.5953444579272 511.50886466706015z" fill="rgba(142, 69, 28, 0.4)" class="triangle-float1"></path><path d="M1014.2854759944165 294.1524880731206L819.6847519312394 338.8843045349874 936.4801266128826 468.598709330585z" fill="rgba(142, 69, 28, 0.4)" class="triangle-float1"></path></g><defs><mask id="SvgjsMask1025"><rect width="1440" height="768" fill="#ffffff"></rect></mask><style>
                @keyframes float1 {
                    0%{transform: translate(0, 0)}
                    50%{transform: translate(-10px, 0)}
                    100%{transform: translate(0, 0)}
                }

                .triangle-float1 {
                    animation: float1 5s infinite;
                }

                @keyframes float2 {
                    0%{transform: translate(0, 0)}
                    50%{transform: translate(-5px, -5px)}
                    100%{transform: translate(0, 0)}
                }

                .triangle-float2 {
                    animation: float2 4s infinite;
                }

                @keyframes float3 {
                    0%{transform: translate(0, 0)}
                    50%{transform: translate(0, -10px)}
                    100%{transform: translate(0, 0)}
                }

                .triangle-float3 {
                    animation: float3 6s infinite;
                }
            </style></defs></svg>