<svg xmlns="http://www.w3.org/2000/svg" version="1.1" xmlns:xlink="http://www.w3.org/1999/xlink" xmlns:svgjs="http://svgjs.dev/svgjs" width="1440" height="560" preserveAspectRatio="none" viewBox="0 0 1440 560"><g mask="url(&quot;#SvgjsMask1012&quot;)" fill="none"><rect width="1440" height="560" x="0" y="0" fill="rgba(253, 240, 233, 1)"></rect><path d="M744.8 231.62a1.01 1.01 0 1 0-0.12-2.02z" fill="rgba(217, 139, 12, 0.6)"></path><path d="M1036.9 547.86L1083.83 547.86L1083.83 594.79L1036.9 594.79z" fill="rgba(226, 26, 24, 0.71)"></path><path d="M1025.24 426.78 a16.89 16.89 0 1 0 33.78 0 a16.89 16.89 0 1 0 -33.78 0z" fill="rgba(217, 139, 12, 0.6)"></path><path d="M12.08 23.24L52.25 23.24L52.25 63.41L12.08 63.41z" stroke="rgba(226, 26, 24, 0.71)"></path><path d="M1429.47 431.06L1435.52 431.06L1435.52 449.61L1429.47 449.61z" stroke="rgba(226, 26, 24, 0.71)"></path><path d="M187.33 203.8 a41.9 41.9 0 1 0 83.8 0 a41.9 41.9 0 1 0 -83.8 0z" fill="rgba(226, 26, 24, 0.71)"></path><path d="M16.79 453.4L53.55 453.4L53.55 490.16L16.79 490.16z" stroke="rgba(217, 139, 12, 0.6)"></path><path d="M70.03 197.83 a12.85 12.85 0 1 0 25.7 0 a12.85 12.85 0 1 0 -25.7 0z" fill="rgba(217, 139, 12, 0.6)"></path><path d="M552.88 219.79L574.88 219.79L574.88 241.79L552.88 241.79z" fill="rgba(15, 97, 157, 0.75)"></path><path d="M1392.89 319.21 a41.11 41.11 0 1 0 82.22 0 a41.11 41.11 0 1 0 -82.22 0z" stroke="rgba(226, 26, 24, 0.71)"></path><path d="M43.07 353.82 a49.5 49.5 0 1 0 99 0 a49.5 49.5 0 1 0 -99 0z" fill="rgba(217, 139, 12, 0.6)"></path><path d="M492.95 293.33L497.08 293.33L497.08 328.14L492.95 328.14z" stroke="rgba(226, 26, 24, 0.71)"></path><path d="M554.18 200.37a6.53 6.53 0 1 0 1-13.02z" stroke="rgba(15, 97, 157, 0.75)"></path><path d="M1346.52 24.31 a32.66 32.66 0 1 0 65.32 0 a32.66 32.66 0 1 0 -65.32 0z" fill="rgba(15, 97, 157, 0.75)"></path><path d="M243.49 255.54L282.41 255.54L282.41 284.53L243.49 284.53z" stroke="rgba(226, 26, 24, 0.71)"></path><path d="M1384.65 91.38a10.19 10.19 0 1 0 1.21 20.35z" fill="rgba(226, 26, 24, 0.71)"></path><path d="M726.88 311.92L727.18 311.92L727.18 312.22L726.88 312.22z" stroke="rgba(226, 26, 24, 0.71)"></path><path d="M887.77 185.15L938.84 185.15L938.84 236.22L887.77 236.22z" fill="rgba(217, 139, 12, 0.6)"></path><path d="M902.7 421.85 a32.39 32.39 0 1 0 64.78 0 a32.39 32.39 0 1 0 -64.78 0z" fill="rgba(15, 97, 157, 0.75)"></path><path d="M973.47 364.53a21.94 21.94 0 1 0 1.71-43.85z" stroke="rgba(15, 97, 157, 0.75)"></path><path d="M1315.97 387.74L1320.95 387.74L1320.95 427.81L1315.97 427.81z" fill="rgba(226, 26, 24, 0.71)"></path><path d="M986.93 457.73L1032.73 457.73L1032.73 480.55L986.93 480.55z" fill="rgba(226, 26, 24, 0.71)"></path><path d="M1066.69 448.74L1080.26 448.74L1080.26 491.06L1066.69 491.06z" stroke="rgba(217, 139, 12, 0.6)"></path><path d="M1134.07 295.88 a54.25 54.25 0 1 0 108.5 0 a54.25 54.25 0 1 0 -108.5 0z" fill="rgba(226, 26, 24, 0.71)"></path><path d="M763.79 20.76L814.3 20.76L814.3 71.27L763.79 71.27z" stroke="rgba(15, 97, 157, 0.75)"></path><path d="M773.88 206.87L803.29 206.87L803.29 236.28L773.88 236.28z" fill="rgba(217, 139, 12, 0.6)"></path><path d="M1295.78 309.34a38.84 38.84 0 1 0-13.9 76.42z" stroke="rgba(226, 26, 24, 0.71)"></path><path d="M704.07 74.44a26.27 26.27 0 1 0-24.2-46.64z" stroke="rgba(226, 26, 24, 0.71)"></path><path d="M753.63 60.1L775.4 60.1L775.4 65.36L753.63 65.36z" stroke="rgba(217, 139, 12, 0.6)"></path><path d="M334.41 356.74L357.51 356.74L357.51 379.84L334.41 379.84z" stroke="rgba(217, 139, 12, 0.6)"></path><path d="M97.07 504.49L106.27 504.49L106.27 532.17L97.07 532.17z" stroke="rgba(15, 97, 157, 0.75)"></path><path d="M1197.14 42.01L1207.48 42.01L1207.48 52.35L1197.14 52.35z" fill="rgba(226, 26, 24, 0.71)"></path><path d="M503.1 20.26 a9.76 9.76 0 1 0 19.52 0 a9.76 9.76 0 1 0 -19.52 0z" fill="rgba(15, 97, 157, 0.75)"></path></g><defs><mask id="SvgjsMask1012"><rect width="1440" height="560" fill="#ffffff"></rect></mask></defs></svg>