<svg xmlns="http://www.w3.org/2000/svg" version="1.1" xmlns:xlink="http://www.w3.org/1999/xlink" xmlns:svgjs="http://svgjs.dev/svgjs" width="1440" height="780" preserveAspectRatio="none" viewBox="0 0 1440 780"><g mask="url(&quot;#SvgjsMask1022&quot;)" fill="none"><path d="M-42.75 764.14 a69.57 69.57 0 1 0 139.14 0 a69.57 69.57 0 1 0 -139.14 0z" fill="rgba(226, 26, 24, 0.71)"></path><path d="M692.62 650.35a28.07 28.07 0 1 0-6.65-55.74z" fill="rgba(226, 26, 24, 0.71)"></path><path d="M460.85 715.11 a6.24 6.24 0 1 0 12.48 0 a6.24 6.24 0 1 0 -12.48 0z" fill="rgba(15, 97, 157, 0.75)"></path><path d="M203.11 680.49L276.25 680.49L276.25 753.63L203.11 753.63z" fill="rgba(15, 97, 157, 0.75)"></path><path d="M977.48 489.01 a19.09 19.09 0 1 0 38.18 0 a19.09 19.09 0 1 0 -38.18 0z" fill="rgba(217, 139, 12, 0.6)"></path><path d="M1128.32 251.08 a10.18 10.18 0 1 0 20.36 0 a10.18 10.18 0 1 0 -20.36 0z" fill="rgba(217, 139, 12, 0.6)"></path><path d="M1378.83 696.11a59.56 59.56 0 1 0 44.58-110.46z" fill="rgba(217, 139, 12, 0.6)"></path><path d="M781.83 170.18L789.31 170.18L789.31 177.66L781.83 177.66z" fill="rgba(217, 139, 12, 0.6)"></path><path d="M937.47 317.47a47.8 47.8 0 1 0-95.26 7.98z" fill="rgba(15, 97, 157, 0.75)"></path><path d="M350.11 261.36 a47.14 47.14 0 1 0 94.28 0 a47.14 47.14 0 1 0 -94.28 0z" fill="rgba(226, 26, 24, 0.71)"></path><path d="M177.84 459.64a28.64 28.64 0 1 0-57.28-0.06z" fill="rgba(15, 97, 157, 0.75)"></path><path d="M368.26 149.7 a8.5 8.5 0 1 0 17 0 a8.5 8.5 0 1 0 -17 0z" stroke="rgba(217, 139, 12, 0.6)"></path><path d="M908.61 136.38L923.79 136.38L923.79 151.56L908.61 151.56z" fill="rgba(226, 26, 24, 0.71)"></path><path d="M970.98 306.21L1041.13 306.21L1041.13 360.6L970.98 360.6z" fill="rgba(15, 97, 157, 0.75)"></path><path d="M30.44 715.05 a4.35 4.35 0 1 0 8.7 0 a4.35 4.35 0 1 0 -8.7 0z" fill="rgba(15, 97, 157, 0.75)"></path><path d="M762.36 543.11L820.06 543.11L820.06 588.27L762.36 588.27z" stroke="rgba(15, 97, 157, 0.75)"></path><path d="M927.33 567.47a45.32 45.32 0 1 0 85.01 31.44z" stroke="rgba(15, 97, 157, 0.75)"></path><path d="M346.92 294.87a19.38 19.38 0 1 0 12.95-36.54z" stroke="rgba(226, 26, 24, 0.71)"></path><path d="M1277.9 539.91a66.61 66.61 0 1 0-130.27-27.85z" stroke="rgba(226, 26, 24, 0.71)"></path><path d="M1130.35 271.6L1191.58 271.6L1191.58 330.48L1130.35 330.48z" fill="rgba(15, 97, 157, 0.75)"></path><path d="M1095.26 106.38a25.22 25.22 0 1 0 42.26 27.54z" stroke="rgba(217, 139, 12, 0.6)"></path><path d="M1198.72 355.3L1259.66 355.3L1259.66 359.1L1198.72 359.1z" stroke="rgba(226, 26, 24, 0.71)"></path><path d="M477.87 445.62L479.52 445.62L479.52 447.27L477.87 447.27z" fill="rgba(226, 26, 24, 0.71)"></path><path d="M709.44 176.62a2.13 2.13 0 1 0 4.26 0.1z" fill="rgba(226, 26, 24, 0.71)"></path></g><defs><mask id="SvgjsMask1022"><rect width="1440" height="780" fill="#ffffff"></rect></mask></defs></svg>