<svg xmlns="http://www.w3.org/2000/svg" version="1.1" xmlns:xlink="http://www.w3.org/1999/xlink" xmlns:svgjs="http://svgjs.dev/svgjs" width="1440" height="560" preserveAspectRatio="none" viewBox="0 0 1440 560"><g mask="url(&quot;#SvgjsMask1015&quot;)" fill="none"><path d="M551.87 632.2C728.14 591.28 801.33 123.18 1064.85 121.55 1328.37 119.92 1433.27 382.37 1577.83 390.35" stroke="rgba(208, 86, 31, 0.58)" stroke-width="2"></path><path d="M169.29 647.67C349 641.98 474.87 377.23 831.65 367.4 1188.43 357.57 1316.89 119.61 1494.01 115.4" stroke="rgba(208, 86, 31, 0.58)" stroke-width="2"></path><path d="M905.65 628.93C1054.89 576.41 1094.9 136.22 1300.02 134 1505.14 131.78 1575.72 390.42 1694.39 402.8" stroke="rgba(208, 86, 31, 0.58)" stroke-width="2"></path><path d="M457.47 668.01C559.05 661.11 521.81 476.51 811.38 466.48 1100.95 456.45 1330.45 207.49 1519.19 203.28" stroke="rgba(208, 86, 31, 0.58)" stroke-width="2"></path><path d="M516.3 656.95C631.14 630.04 572.74 335.44 849.85 323.29 1126.95 311.14 1346.24 178.53 1516.94 177.69" stroke="rgba(208, 86, 31, 0.58)" stroke-width="2"></path></g><defs><mask id="SvgjsMask1015"><rect width="1440" height="560" fill="#ffffff"></rect></mask></defs></svg>