<svg xmlns="http://www.w3.org/2000/svg" version="1.1" xmlns:xlink="http://www.w3.org/1999/xlink" xmlns:svgjs="http://svgjs.dev/svgjs" width="1440" height="560" preserveAspectRatio="none" viewBox="0 0 1440 560"><g mask="url(&quot;#SvgjsMask1006&quot;)" fill="none"><path d="M1300 303L1299 708" stroke-width="8" stroke="url(&quot;#SvgjsLinearGradient1007&quot;)" stroke-linecap="round" class="Down"></path><path d="M744 443L743 634" stroke-width="10" stroke="url(&quot;#SvgjsLinearGradient1007&quot;)" stroke-linecap="round" class="Down"></path><path d="M1402 383L1401 680" stroke-width="8" stroke="url(&quot;#SvgjsLinearGradient1008&quot;)" stroke-linecap="round" class="Up"></path><path d="M425 356L424 177" stroke-width="10" stroke="url(&quot;#SvgjsLinearGradient1007&quot;)" stroke-linecap="round" class="Down"></path><path d="M912 120L911 307" stroke-width="8" stroke="url(&quot;#SvgjsLinearGradient1007&quot;)" stroke-linecap="round" class="Down"></path><path d="M976 175L975 549" stroke-width="10" stroke="url(&quot;#SvgjsLinearGradient1007&quot;)" stroke-linecap="round" class="Down"></path><path d="M863 214L862 364" stroke-width="8" stroke="url(&quot;#SvgjsLinearGradient1008&quot;)" stroke-linecap="round" class="Up"></path><path d="M969 344L968 -64" stroke-width="6" stroke="url(&quot;#SvgjsLinearGradient1007&quot;)" stroke-linecap="round" class="Down"></path><path d="M190 60L189 -265" stroke-width="8" stroke="url(&quot;#SvgjsLinearGradient1007&quot;)" stroke-linecap="round" class="Down"></path><path d="M1365 249L1364 -59" stroke-width="10" stroke="url(&quot;#SvgjsLinearGradient1007&quot;)" stroke-linecap="round" class="Down"></path><path d="M1258 318L1257 717" stroke-width="6" stroke="url(&quot;#SvgjsLinearGradient1007&quot;)" stroke-linecap="round" class="Down"></path><path d="M1205 247L1204 648" stroke-width="6" stroke="url(&quot;#SvgjsLinearGradient1008&quot;)" stroke-linecap="round" class="Up"></path><path d="M155 204L154 603" stroke-width="10" stroke="url(&quot;#SvgjsLinearGradient1007&quot;)" stroke-linecap="round" class="Down"></path><path d="M564 51L563 -249" stroke-width="8" stroke="url(&quot;#SvgjsLinearGradient1008&quot;)" stroke-linecap="round" class="Up"></path><path d="M296 265L295 -48" stroke-width="8" stroke="url(&quot;#SvgjsLinearGradient1008&quot;)" stroke-linecap="round" class="Up"></path><path d="M298 270L297 455" stroke-width="10" stroke="url(&quot;#SvgjsLinearGradient1008&quot;)" stroke-linecap="round" class="Up"></path><path d="M518 49L517 -252" stroke-width="6" stroke="url(&quot;#SvgjsLinearGradient1007&quot;)" stroke-linecap="round" class="Down"></path><path d="M839 245L838 102" stroke-width="10" stroke="url(&quot;#SvgjsLinearGradient1007&quot;)" stroke-linecap="round" class="Down"></path><path d="M559 549L558 698" stroke-width="10" stroke="url(&quot;#SvgjsLinearGradient1007&quot;)" stroke-linecap="round" class="Down"></path><path d="M46 18L45 -383" stroke-width="10" stroke="url(&quot;#SvgjsLinearGradient1007&quot;)" stroke-linecap="round" class="Down"></path><path d="M1158 285L1157 81" stroke-width="6" stroke="url(&quot;#SvgjsLinearGradient1007&quot;)" stroke-linecap="round" class="Down"></path><path d="M315 133L314 -179" stroke-width="8" stroke="url(&quot;#SvgjsLinearGradient1007&quot;)" stroke-linecap="round" class="Down"></path><path d="M98 502L97 99" stroke-width="6" stroke="url(&quot;#SvgjsLinearGradient1007&quot;)" stroke-linecap="round" class="Down"></path><path d="M102 244L101 470" stroke-width="6" stroke="url(&quot;#SvgjsLinearGradient1007&quot;)" stroke-linecap="round" class="Down"></path><path d="M310 180L309 -237" stroke-width="8" stroke="url(&quot;#SvgjsLinearGradient1008&quot;)" stroke-linecap="round" class="Up"></path><path d="M1309 308L1308 36" stroke-width="8" stroke="url(&quot;#SvgjsLinearGradient1008&quot;)" stroke-linecap="round" class="Up"></path><path d="M1345 290L1344 -113" stroke-width="6" stroke="url(&quot;#SvgjsLinearGradient1007&quot;)" stroke-linecap="round" class="Down"></path><path d="M992 278L991 -29" stroke-width="6" stroke="url(&quot;#SvgjsLinearGradient1008&quot;)" stroke-linecap="round" class="Up"></path><path d="M461 332L460 613" stroke-width="6" stroke="url(&quot;#SvgjsLinearGradient1008&quot;)" stroke-linecap="round" class="Up"></path><path d="M1055 338L1054 736" stroke-width="8" stroke="url(&quot;#SvgjsLinearGradient1008&quot;)" stroke-linecap="round" class="Up"></path><path d="M384 257L383 -92" stroke-width="6" stroke="url(&quot;#SvgjsLinearGradient1008&quot;)" stroke-linecap="round" class="Up"></path><path d="M1183 112L1182 -267" stroke-width="6" stroke="url(&quot;#SvgjsLinearGradient1007&quot;)" stroke-linecap="round" class="Down"></path><path d="M905 224L904 -10" stroke-width="8" stroke="url(&quot;#SvgjsLinearGradient1008&quot;)" stroke-linecap="round" class="Up"></path><path d="M357 54L356 -108" stroke-width="8" stroke="url(&quot;#SvgjsLinearGradient1008&quot;)" stroke-linecap="round" class="Up"></path><path d="M1377 443L1376 248" stroke-width="6" stroke="url(&quot;#SvgjsLinearGradient1008&quot;)" stroke-linecap="round" class="Up"></path><path d="M1142 431L1141 200" stroke-width="10" stroke="url(&quot;#SvgjsLinearGradient1008&quot;)" stroke-linecap="round" class="Up"></path></g><defs><mask id="SvgjsMask1006"><rect width="1440" height="560" fill="#ffffff"></rect></mask><linearGradient x1="0%" y1="0%" x2="0%" y2="100%" id="SvgjsLinearGradient1007"><stop stop-color="rgba(57, 20, 0, 0)" offset="0"></stop><stop stop-color="rgba(57, 20, 0, 1)" offset="1"></stop></linearGradient><linearGradient x1="0%" y1="100%" x2="0%" y2="0%" id="SvgjsLinearGradient1008"><stop stop-color="rgba(57, 20, 0, 0)" offset="0"></stop><stop stop-color="rgba(57, 20, 0, 1)" offset="1"></stop></linearGradient></defs></svg>