<svg xmlns="http://www.w3.org/2000/svg" version="1.1" xmlns:xlink="http://www.w3.org/1999/xlink" xmlns:svgjs="http://svgjs.dev/svgjs" width="1440" height="560" preserveAspectRatio="none" viewBox="0 0 1440 560"><g mask="url(&quot;#SvgjsMask1008&quot;)" fill="none"><path d="M 0,246 C 57.6,216.2 172.8,93.6 288,97 C 403.2,100.4 460.8,266.2 576,263 C 691.2,259.8 748.8,94.6 864,81 C 979.2,67.4 1036.8,205 1152,195 C 1267.2,185 1382.4,63.8 1440,31L1440 560L0 560z" fill="rgba(239, 108, 87, 1)"></path><path d="M 0,435 C 96,417 288,339.8 480,345 C 672,350.2 768,470.2 960,461 C 1152,451.8 1344,331.4 1440,299L1440 560L0 560z" fill="#2264ab"></path></g><defs><mask id="SvgjsMask1008"><rect width="1440" height="560" fill="#ffffff"></rect></mask></defs></svg>